<?xml version="1.0" encoding="UTF-8" standalone="no"?>
<!-- Created with Inkscape (http://www.inkscape.org/) -->

<svg
   width="34.044922mm"
   height="13.465698mm"
   viewBox="0 0 34.044922 13.465698"
   version="1.1"
   id="svg5"
   xml:space="preserve"
   xmlns="http://www.w3.org/2000/svg"
   xmlns:svg="http://www.w3.org/2000/svg"><defs
     id="defs2" /><g
     id="layer1"
     transform="translate(-334.87336,-728.27964)"><g
       id="g7974-7-3"
       transform="matrix(1.4268155,0,0,1.4268155,153.3079,80.719525)"><path
         style="fill:#1a1a1a;stroke:none;stroke-width:0.0275433"
         d="m 138.22267,456.31393 v 4.15905 h 0.49578 v -4.15905 h -0.49578 m 3.96625,3.22258 h -0.57841 c -0.17802,0.55745 -0.92003,0.68965 -1.37717,0.40565 -0.29058,-0.18054 -0.44174,-0.48583 -0.46824,-0.8188 h 2.4789 c 0,-0.55856 -0.037,-1.06915 -0.49685,-1.45716 -0.93424,-0.78818 -2.35512,-0.14275 -2.49749,1.01646 -0.0671,0.54613 0.0809,1.14333 0.51544,1.50591 0.80416,0.67095 2.08787,0.33457 2.42382,-0.65206 m 2.97468,0.3856 h 0.0275 v 0.55087 h 0.49578 v -3.08486 h -0.49578 v 0.52333 c -0.27695,-0.25288 -0.46612,-0.4722 -0.85384,-0.55076 -0.2875,-0.0582 -0.60968,-0.0356 -0.88139,0.0791 -1.0375,0.43788 -1.20767,2.05107 -0.35699,2.76303 0.58078,0.48606 1.68372,0.45364 2.06468,-0.28072 m 1.76277,-2.06575 h -0.0275 v -0.46824 h -0.49578 v 3.08486 h 0.49578 v -1.51488 c 4.7e-4,-0.29695 0.0315,-0.65485 0.25298,-0.8763 0.20641,-0.20641 0.49173,-0.22544 0.76612,-0.22544 v -0.52332 c -0.40263,5e-5 -0.80121,0.14121 -0.99156,0.52332 m 1.95558,-0.0551 h -0.0275 v -0.41315 h -0.52332 v 3.08486 h 0.52332 v -1.40471 c 0,-0.28899 -0.0263,-0.58753 0.11007,-0.85384 0.29826,-0.58255 1.22171,-0.58172 1.51951,0 0.13077,0.25543 0.10566,0.54913 0.10566,0.8263 v 1.43225 h 0.52332 v -1.51488 c 0,-0.38107 -0.004,-0.79992 -0.22324,-1.12928 -0.38599,-0.58062 -1.66384,-0.76455 -2.00777,-0.0276 m -7.16127,0.90894 h -1.95558 c 0.0986,-1.20654 1.92994,-1.24254 1.95558,0 m 2.2861,-0.92852 c 1.42068,-0.18498 1.59429,2.13703 0.1928,2.29356 -1.35359,0.15119 -1.5094,-2.12213 -0.1928,-2.29356 z"
         id="path7969-4-6" /><rect
         style="fill:#1a1a1a;fill-opacity:1;stroke-width:0.0133207;stroke-linecap:round"
         id="rect4152-4-7-7-1-7"
         width="9.2832575"
         height="9.4376345"
         x="127.25224"
         y="453.84991"
         rx="0"
         ry="0" /><path
         id="rect2667-1-5-8-4-6-8-8-5"
         style="fill:#ffffff;stroke:none;stroke-width:0.172208;stroke-linecap:butt;stroke-linejoin:bevel;stroke-dasharray:none;stroke-opacity:1;paint-order:markers fill stroke"
         d="m 134.13464,456.66778 c -0.20664,0.81747 -0.37761,1.46578 -0.56116,2.20955 -0.0101,0.0498 -0.0793,0.32683 -0.15408,0.62188 -0.015,0.0592 -0.04,0.15929 -0.0555,0.22233 -0.0317,0.12875 -0.0687,0.27081 -0.079,0.30219 -0.007,0.0197 -0.0436,-0.0865 -0.0927,-0.264 -0.0115,-0.0419 -0.0375,-0.13264 -0.0575,-0.20147 -0.0198,-0.0687 -0.0445,-0.15636 -0.0547,-0.19457 -0.0101,-0.0382 -0.0323,-0.11948 -0.0494,-0.18063 -0.0172,-0.0612 -0.0362,-0.13309 -0.0424,-0.15984 -0.007,-0.0268 -0.0275,-0.10494 -0.0471,-0.17366 -0.0197,-0.0687 -0.0519,-0.18448 -0.0714,-0.25711 -0.0197,-0.0727 -0.0447,-0.16327 -0.0557,-0.20154 -0.0115,-0.0382 -0.0287,-0.10068 -0.0391,-0.13897 -0.0259,-0.0953 -0.10359,-0.36589 -0.11973,-0.41683 -0.008,-0.0229 -0.0319,-0.1074 -0.0549,-0.18765 -0.0633,-0.22129 -0.10863,-0.37497 -0.18211,-0.61839 -0.007,-0.0229 -0.0258,-0.087 -0.0417,-0.14233 -0.0622,-0.21503 -0.19618,-0.35769 -0.41969,-0.44666 -0.0546,-0.0214 -0.28196,-0.0191 -0.35878,0.003 -0.21303,0.0647 -0.36976,0.23374 -0.42835,0.46223 -0.008,0.0292 -0.0229,0.0842 -0.0344,0.12245 -0.0361,0.12064 -0.0599,0.20271 -0.11935,0.40992 -0.12207,0.4259 -0.14152,0.49503 -0.15469,0.54892 -0.008,0.0306 -0.0345,0.12439 -0.06,0.2084 -0.0256,0.0841 -0.0504,0.16855 -0.0554,0.18768 -0.0305,0.11974 -0.0683,0.25576 -0.12335,0.44467 -0.0346,0.11845 -0.0794,0.27481 -0.0994,0.34739 -0.0201,0.0727 -0.0421,0.1508 -0.049,0.17373 -0.007,0.0229 -0.0276,0.0978 -0.0461,0.16613 -0.0186,0.0684 -0.0394,0.12643 -0.0465,0.12875 -0.0129,0.003 -0.0521,-0.10336 -0.0654,-0.17669 -0.0115,-0.0599 -0.0466,-0.20733 -0.10595,-0.43777 -0.0513,-0.19927 -0.0692,-0.26954 -0.1102,-0.43774 -0.007,-0.0268 -0.0566,-0.22062 -0.11121,-0.43078 -0.23274,-0.67726 -0.29081,-0.79656 -0.97772,-0.76072 -0.002,0.009 0.006,0.0581 0.0186,0.10763 0.0136,0.0497 0.057,0.21535 0.0961,0.36823 0.0392,0.15286 0.0997,0.38739 0.13403,0.52109 0.0344,0.13377 0.0682,0.26508 0.0749,0.29188 0.007,0.0268 0.0254,0.0955 0.0416,0.15285 0.0161,0.0573 0.0436,0.16359 0.0614,0.23624 0.0178,0.0726 0.0488,0.19142 0.0688,0.26407 0.0685,0.24727 0.12064,0.43764 0.13321,0.48631 0.008,0.0268 0.0216,0.0799 0.0328,0.11808 0.0115,0.0382 0.0432,0.15704 0.0711,0.26409 0.0778,0.29843 0.13241,0.39385 0.27844,0.48653 0.11066,0.0702 0.18829,0.0901 0.35086,0.0901 0.13054,0 0.15451,-0.003 0.24987,-0.0439 0.20003,-0.0833 0.3212,-0.24834 0.39115,-0.53278 0.008,-0.0306 0.0229,-0.0869 0.0344,-0.12515 0.02,-0.067 0.15336,-0.54055 0.17614,-0.62532 0.007,-0.0229 0.0245,-0.0855 0.041,-0.13898 0.0164,-0.0535 0.0382,-0.1285 0.0485,-0.16669 0.0101,-0.0382 0.0348,-0.12579 0.0546,-0.19457 0.02,-0.0687 0.0461,-0.16259 0.0584,-0.20849 0.029,-0.10763 0.061,-0.21339 0.0776,-0.25631 0.008,-0.0188 0.0184,-0.0592 0.0251,-0.0903 0.007,-0.031 0.0349,-0.13767 0.0627,-0.23706 0.0278,-0.0992 0.0592,-0.21192 0.0696,-0.25012 0.0101,-0.0382 0.0318,-0.1133 0.0474,-0.16673 0.0157,-0.0535 0.035,-0.12386 0.043,-0.15633 0.008,-0.0325 0.0191,-0.0591 0.0244,-0.059 0.006,7e-5 0.0275,0.0674 0.0488,0.14947 0.0214,0.0822 0.0442,0.16801 0.0506,0.19094 0.007,0.0226 0.0211,0.0761 0.0327,0.1182 0.076,0.27648 0.10101,0.36591 0.1267,0.45163 0.0531,0.17813 0.0668,0.22574 0.0775,0.271 0.007,0.0264 0.0471,0.17367 0.0906,0.32654 0.0435,0.15285 0.0874,0.30919 0.0978,0.34743 0.0101,0.0382 0.0287,0.10695 0.0409,0.15288 0.0129,0.0458 0.0278,0.10213 0.0345,0.12503 0.0349,0.11909 0.10247,0.3559 0.11897,0.41685 0.0101,0.0382 0.0289,0.10393 0.0415,0.14593 0.0249,0.084 0.0284,0.0965 0.0825,0.29878 0.0857,0.31947 0.1009,0.35482 0.20282,0.46917 0.0787,0.0882 0.19642,0.15505 0.32061,0.18199 0.11974,0.0259 0.14228,0.0261 0.25853,0.002 v -9e-5 c 0.11548,-0.0243 0.15842,-0.0409 0.22625,-0.0888 0.14449,-0.10224 0.19948,-0.19347 0.26449,-0.43902 0.0223,-0.0841 0.0601,-0.22476 0.0842,-0.31267 0.0241,-0.0879 0.0486,-0.1817 0.0545,-0.20842 0.007,-0.0268 0.0261,-0.1018 0.0452,-0.16677 0.041,-0.14071 0.0461,-0.15894 0.0796,-0.28489 0.023,-0.0865 0.0534,-0.19963 0.12129,-0.45164 0.0115,-0.0422 0.029,-0.11088 0.0393,-0.15291 0.0198,-0.0809 0.0678,-0.25828 0.11665,-0.43076 0.061,-0.21622 0.30685,-1.15505 0.33475,-1.27851 0.007,-0.0263 0.0235,-0.0925 0.0389,-0.14589 0.0152,-0.0536 0.0544,-0.19737 0.0867,-0.31963 0.0323,-0.12219 0.0676,-0.25364 0.0786,-0.29183 0.0115,-0.0381 0.0385,-0.14135 0.0613,-0.22928 0.0457,-0.17427 0.0926,-0.34822 0.136,-0.5231 -0.84153,0.0661 -0.89685,0.29191 -1.0348,0.80913 z" /></g></g></svg>
